<svg width="385" height="360" viewBox="0 0 385 360" fill="none" xmlns="http://www.w3.org/2000/svg">
<path d="M81.7002 225.1L49.2002 206.3L55.6002 202.6L88.1002 221.4L81.7002 225.1Z" fill="#B21E34"/>
<path d="M49.2002 206.3V210L81.7002 228.8V225.1L49.2002 206.3Z" fill="#F2B0A2"/>
<path d="M88.1002 221.4L81.7002 225.1V228.8L88.1002 225.1V221.4Z" fill="#F2B0A2"/>
<path d="M201.5 156.2L169 137.4L175.4 133.7L207.9 152.5L201.5 156.2Z" fill="#B21E34"/>
<path d="M169 137.4V141L201.5 159.8V156.2L169 137.4Z" fill="#F2B0A2"/>
<path d="M207.9 152.5L201.5 156.2V159.8L207.9 156.1V152.5Z" fill="#F2B0A2"/>
<path d="M69.3001 197.1L67.6001 194.2L187.7 124.9V128.8L69.3001 197.1Z" fill="#EEFDFE"/>
<path d="M186.6 47V144.7C186.6 145.2 187.3 145.6 188.3 145.6C189.2 145.6 190 145.2 190 144.7V47H186.6Z" fill="#EEFDFE"/>
<path d="M163.421 49.2123C163.476 49.0878 163.531 48.9672 163.583 48.8571C163.732 48.9683 163.914 49.1041 164.126 49.2625C164.774 49.7488 165.697 50.4473 166.795 51.2956C168.003 52.2296 169.289 52.4687 170.286 52.5723C170.515 52.5961 170.713 52.6119 170.891 52.626C171.125 52.6447 171.324 52.6605 171.514 52.6884C171.641 52.7072 171.727 52.7278 171.785 52.7458C171.743 52.8096 171.68 52.8912 171.588 52.9884C171.302 53.2925 170.83 53.6572 170.242 53.9898C169.048 54.6649 167.538 55.1191 166.322 54.8149C165.132 54.5175 164.348 53.5512 163.837 52.5055C163.35 51.5074 163.155 50.526 163.097 50.2328C163.095 50.2253 163.094 50.2182 163.093 50.2115C163.093 50.2072 163.093 50.1854 163.1 50.1406C163.11 50.077 163.13 49.9936 163.161 49.8917C163.224 49.6881 163.318 49.4484 163.421 49.2123ZM171.848 52.6231C171.848 52.623 171.848 52.6242 171.847 52.6268C171.848 52.6244 171.848 52.6231 171.848 52.6231Z" fill="#D7E4E7" stroke="#D7E4E7"/>
<path d="M178.401 67.4644L178.401 67.4762C178.303 69.5374 177.96 71.211 177.53 72.3916C177.315 72.983 177.084 73.4362 176.861 73.7496C176.652 74.0445 176.484 74.1687 176.386 74.2104C176.363 74.1919 176.326 74.1565 176.275 74.0911C176.12 73.8937 175.942 73.5431 175.775 73.0419C175.444 72.0508 175.2 70.6053 175.2 69C175.2 67.4668 175.537 65.9433 175.879 64.7927C176.05 64.2198 176.221 63.7448 176.348 63.4142C176.412 63.2489 176.464 63.12 176.501 63.0333C176.505 63.0248 176.508 63.0167 176.511 63.009L178.104 61.6929C178.157 61.9481 178.214 62.2667 178.268 62.645C178.426 63.7635 178.549 65.403 178.401 67.4644L178.401 67.4644ZM176.416 74.2284C176.416 74.2293 176.412 74.2283 176.403 74.2225C176.412 74.2245 176.416 74.2274 176.416 74.2284Z" fill="#D7E4E7" stroke="#D7E4E7"/>
<path d="M154.601 50.4L181.601 66V63L154.601 47.4V50.4Z" fill="#DB3377"/>
<path d="M153.601 51L180.601 66.6V63.6L153.601 48V51Z" fill="#B21E34"/>
<path d="M180.601 63.6L181.601 63V66L180.601 66.6V63.6Z" fill="#B21E34"/>
<path d="M153.601 48L154.601 47.4L181.601 63L180.601 63.6L153.601 48Z" fill="#F2B0A2"/>
<path d="M179.4 62.3L168.3 46.8L157.5 49.6L158.7 50.4L167.9 47.9L177.3 61.1L179.4 62.3Z" fill="#4F0008"/>
<path d="M172.4 52.5C172.4 52.5 170.2 55.5 165.9 52.7C162.9 50.7 163.4 48.1 163.4 48.1L157.5 49C157.5 49 156.5 55.7 157 60.1C157.5 64.1 158.8 70 158.2 73.6C157.7 77.2 155.5 78.4 153.6 84.7C152.1 89.6 151.9 113.3 151.9 115.5C152.2 116.1 155.8 119.5 163.1 123C168.1 125.4 173 127.2 179.7 124.3C180.3 112.4 180.2 99.5 178.5 88.9C177.5 83 175.9 81.7 176.4 78.1C176.8 75.5 177.2 75.1 177.9 72.8C175.9 74.2 175.5 70.6 175.9 66.9C176.3 62.9 178.3 60.9 178.3 60.9L172.4 52.5Z" fill="#F6BBB5"/>
<path d="M177.235 92.6588L177.23 92.6642L177.225 92.6697C176.709 93.2561 176.207 93.6439 175.688 93.8812C175.171 94.1171 174.611 94.2163 173.959 94.188C172.626 94.13 170.956 93.544 168.596 92.5399C166.273 91.5513 162.767 89.7125 159.748 87.9907C158.24 87.1308 156.861 86.3044 155.818 85.6327C155.296 85.2965 154.863 85.0024 154.542 84.7645C154.382 84.6454 154.254 84.5439 154.16 84.461C154.112 84.4197 154.076 84.3855 154.05 84.3581C154.036 84.3445 154.027 84.3338 154.02 84.3256C154.013 84.3173 154.01 84.3132 154.01 84.3133C153.705 83.8779 153.401 83.1652 153.224 82.4324C153.041 81.6775 153.025 81.0335 153.164 80.6857C153.181 80.6431 153.233 80.5582 153.35 80.432C153.461 80.3112 153.611 80.1757 153.792 80.0301C154.154 79.739 154.609 79.4324 155.064 79.1496C155.205 79.0621 155.345 78.9775 155.48 78.8969C155.453 78.9562 155.425 79.0163 155.397 79.0771C154.999 79.9352 154.539 80.9553 154.33 81.5291L154.274 81.6849L154.321 81.8437C154.389 82.0701 154.539 82.2843 154.703 82.4736C154.873 82.6719 155.095 82.8846 155.356 83.1079C155.878 83.555 156.591 84.0741 157.449 84.642C159.167 85.779 161.508 87.1373 164.166 88.5416C166.408 89.7377 168.406 90.8005 170.083 91.499C170.923 91.849 171.699 92.115 172.399 92.2599C173.095 92.4042 173.749 92.4357 174.327 92.2835L174.327 92.2836L174.334 92.2818C174.876 92.1312 175.424 91.7916 175.922 91.4062C176.427 91.0154 176.914 90.5496 177.336 90.1081C177.76 89.6654 178.125 89.2399 178.383 88.9254C178.513 88.7679 178.616 88.6377 178.688 88.5463C178.723 88.5007 178.751 88.4647 178.77 88.4398L178.792 88.411L178.798 88.4032L178.799 88.401L178.8 88.4004L178.8 88.4001C178.8 88.4001 178.8 88.4 178.4 88.1L178.8 88.4L178.933 88.2229L178.891 88.0056L178.611 86.5481C179.012 86.9141 179.338 87.4131 179.301 88.0723C179.208 89.744 178.563 91.2357 177.235 92.6588Z" fill="#D7E4E7" stroke="#D7E4E7"/>
<path d="M161.691 73.0019L161.689 72.9941L161.687 72.9864C161.438 71.9185 161.226 70.5435 161.057 69.2198C161.393 70.4313 161.709 71.7952 161.905 73.1664C161.995 73.8911 162.032 74.5426 162.031 75.1223C161.947 74.4477 161.836 73.7283 161.691 73.0019Z" fill="#D7E4E7" stroke="#D7E4E7"/>
<path d="M168.543 75.7969L168.54 75.8041L168.537 75.8114C168.174 76.7034 167.822 77.6686 167.513 78.563C167.595 78.0364 167.712 77.4884 167.878 76.947C168.186 75.9457 168.812 74.5985 169.461 73.33C169.193 74.1688 168.884 75.0306 168.543 75.7969Z" fill="#D7E4E7" stroke="#D7E4E7"/>
<path d="M131.3 63.9L159.7 80.3V77.2L131.3 60.8V63.9Z" fill="#DB3377"/>
<path d="M130.3 64.5L158.7 80.9V77.8L130.3 61.4V64.5Z" fill="#B21E34"/>
<path d="M158.7 77.8L159.7 77.2V80.3L158.7 80.9V77.8Z" fill="#B21E34"/>
<path d="M130.3 61.4L131.3 60.8L159.7 77.2L158.7 77.8L130.3 61.4Z" fill="#F2B0A2"/>
<path d="M157.4 76.5L145.7 60.1L134.4 63.1L135.6 63.9L145.3 61.3L155.2 75.2L157.4 76.5Z" fill="#4F0008"/>
<path d="M111 75.8L138 91.4V88.4L111 72.8V75.8Z" fill="#DB3377"/>
<path d="M110.1 76.4L137.1 91.9V89L110.1 73.4V76.4Z" fill="#B21E34"/>
<path d="M137.1 89L138 88.4V91.4L137.1 91.9V89Z" fill="#B21E34"/>
<path d="M110.1 73.4L111 72.8L138 88.4L137.1 89L110.1 73.4Z" fill="#F2B0A2"/>
<path d="M135.8 87.7L124.7 72.2L113.9 75L115.1 75.7L124.3 73.3L133.7 86.5L135.8 87.7Z" fill="#4F0008"/>
<path d="M133.181 102.777C133.52 102.895 133.796 102.989 133.993 103.056L133.708 116.438C133.697 116.441 133.686 116.445 133.674 116.449C133.438 116.525 133.092 116.631 132.657 116.753C131.785 116.996 130.56 117.298 129.144 117.532C126.297 118.002 122.748 118.186 119.768 117.129L119.768 117.129L119.762 117.127C117.486 116.352 115.947 115.242 114.98 114.335C114.496 113.881 114.155 113.478 113.937 113.191C113.829 113.048 113.751 112.934 113.701 112.858C113.695 112.85 113.69 112.841 113.685 112.834C113.678 112.777 113.669 112.699 113.658 112.602C113.631 112.381 113.59 112.059 113.533 111.655C113.42 110.851 113.244 109.721 112.993 108.415C112.893 107.766 112.792 107.16 112.69 106.662C112.592 106.182 112.481 105.744 112.348 105.476L112.309 105.399L112.247 105.339C109.927 103.112 109.93 100.355 110.751 98.518C111.379 97.3134 112.277 96.0727 113.03 95.123C113.406 94.6486 113.741 94.2513 113.983 93.9729C114.021 93.9292 114.056 93.8884 114.089 93.8507C114.197 93.9187 114.326 94.0005 114.476 94.0942C114.95 94.3913 115.629 94.809 116.446 95.2927C118.077 96.2592 120.266 97.4923 122.485 98.5512L122.485 98.5512L122.488 98.5526C124.957 99.7117 127.923 100.868 130.265 101.732C131.437 102.164 132.456 102.525 133.181 102.777Z" fill="#D7E4E7" stroke="#D7E4E7"/>
<path d="M115.8 107C115.8 107 118 109.6 120.8 113C123.4 116.2 129 114.9 129.7 113.4C129.1 113.7 124.4 113.6 121.6 111.2C120.1 109.9 119.4 108.8 118.6 108.1C117.9 107.4 117.2 107 115.8 107Z" fill="#F6BBB5"/>
<path d="M138.634 130.68C136.981 126.423 135.604 122.541 134.64 119.724C134.158 118.316 133.779 117.173 133.52 116.382C133.417 116.067 133.334 115.808 133.27 115.61C133.225 115.622 133.176 115.634 133.125 115.648C132.731 115.751 132.159 115.893 131.446 116.051C130.022 116.366 128.031 116.744 125.762 116.996C124.578 117.156 123.183 116.999 121.785 116.695C120.376 116.388 118.928 115.924 117.627 115.444C116.326 114.964 115.164 114.465 114.328 114.087C113.981 113.929 113.69 113.793 113.467 113.687C113.353 113.983 113.191 114.409 112.988 114.96C112.559 116.129 111.949 117.86 111.226 120.103C109.78 124.59 107.885 131.125 106.089 139.307L106.088 139.309C105.726 140.924 105.268 142.786 104.798 144.695C104.425 146.208 104.045 147.752 103.7 149.227C102.954 152.411 102.371 155.272 102.306 156.997C104.397 158.094 105.428 159.228 106.19 160.358C106.385 160.647 106.56 160.933 106.728 161.21C106.755 161.255 106.782 161.299 106.809 161.344C106.949 161.575 107.084 161.799 107.227 162.022C107.565 162.548 107.934 163.05 108.446 163.538C109.451 164.498 110.368 164.814 111.535 164.954C112.057 165.016 112.621 165.043 113.274 165.073C113.374 165.078 113.476 165.083 113.581 165.088C114.359 165.126 115.243 165.176 116.262 165.304L116.264 165.304C118.327 165.569 119.855 166.442 121.005 167.269C121.383 167.541 121.734 167.819 122.041 168.061C122.189 168.179 122.327 168.288 122.453 168.384C122.872 168.705 123.137 168.869 123.322 168.915L123.332 168.918L123.332 168.918C125.377 169.475 126.854 168.996 128.125 168.519C128.2 168.491 128.275 168.462 128.351 168.434C128.9 168.226 129.458 168.014 129.989 167.935C130.635 167.839 131.275 167.931 131.9 168.4C132.885 169.138 134.187 169.978 135.477 170.428C136.78 170.882 137.938 170.898 138.786 170.211C139.259 169.828 139.691 169.434 140.117 169.046C140.151 169.015 140.186 168.983 140.22 168.952C140.675 168.538 141.129 168.129 141.6 167.775C142.443 167.143 143.366 166.669 144.533 166.604M138.634 130.68C138.634 130.68 138.634 130.679 138.633 130.679L139.1 130.5L138.634 130.681C138.634 130.681 138.634 130.68 138.634 130.68ZM138.634 130.68C140.268 134.94 141.936 141.405 143.095 148.135C144.221 154.673 144.86 161.42 144.533 166.604M144.533 166.604C144.691 166.595 144.853 166.594 145.02 166.6L145 167.1M144.533 166.604C144.524 166.758 144.513 166.911 144.502 167.062L145 167.1M145 167.1C143.078 167.023 141.865 168.129 140.452 169.417C140.028 169.804 139.585 170.207 139.1 170.6C137 172.3 133.6 170.3 131.6 168.8C130.66 168.095 129.719 168.451 128.53 168.901C127.189 169.408 125.531 170.036 123.2 169.4M145 167.1L123.2 169.4M123.2 169.4C122.8 169.3 122.321 168.921 121.716 168.442C120.509 167.487 118.798 166.133 116.2 165.8L123.2 169.4Z" fill="#D7E4E7" stroke="#D7E4E7"/>
<path d="M134.2 116.8C134.2 116.8 130.4 118.7 125 118.2C119.6 117.7 113.2 113.1 113.2 113.1L112.2 115.7C112.2 115.7 116.7 119.9 123.5 120.6C130.2 121.3 134.8 118.7 134.8 118.7L134.2 116.8Z" fill="#F6BBB5"/>
<path d="M140.8 165.6C140.8 165.6 142.1 159.7 140.1 144.4C138.4 131.4 134.1 123.5 134.1 123.5C134.1 123.5 137.1 138.1 138 143.2C139.8 153.8 140.8 165.6 140.8 165.6Z" fill="#F6BBB5"/>
<path d="M127.9 125.8C127.9 125.8 129.3 136.6 129.7 146.7C130 154.6 128.8 165.5 128.8 165.5C128.8 165.5 128.2 157.4 127.6 147.4C127.1 138.6 127.9 125.8 127.9 125.8Z" fill="#F6BBB5"/>
<path d="M120.2 124.9C120.2 124.9 118.4 138.1 117.4 147.4C116.4 156.7 115.8 164.1 115.8 164.1C115.8 164.1 114.5 154.3 116.3 141.9C118.1 129.5 120.2 124.9 120.2 124.9Z" fill="#F6BBB5"/>
<path d="M114.7 121.6C114.7 121.6 110 138 109.2 142.5C108.3 147 105.2 155 105.2 155C105.2 155 106.5 141.9 108.4 135C110.3 128.1 114.7 121.6 114.7 121.6Z" fill="#F6BBB5"/>
<path d="M120.3 93.2C120.3 93.2 120.3 85.1 120.4 82.2C120 82 119.4 81.6 119.4 81.6V92.8L120.3 93.2Z" fill="#2B2A29"/>
<path d="M131.9 99.9C131.9 99.9 131.9 91.8 132 88.9C131.5 88.6 131 88.3 131 88.3V99.6L131.9 99.9Z" fill="#2B2A29"/>
<path d="M114 93.2C112.8 94.6 114.2 96.7 118.5 98.9C122.9 101.1 128.1 103.8 130.3 104.6C133.5 105.9 135.3 103.5 134 101.3C132.7 99.1 126.4 94.8 122.2 93.1C119.1 92 115.2 91.8 114 93.2Z" fill="#F6BBB5"/>
<path d="M130.9 84.1C130.9 84.1 129.5 83.9 128.5 89.8C127.5 95.9 126.6 103 126.6 103L125.2 102.3C125.2 102.3 126.7 91.5 127.4 87.7C128.3 82.9 129.6 83.4 129.6 83.4L130.9 84.1Z" fill="#2B2A29"/>
<path d="M119.3 77.5C119.3 77.5 117.9 77.2 117.3 83.1C116.7 88.9 115.3 96.9 115.3 96.9L114.2 95.9C114.2 95.9 115.8 84.3 116.3 80.5C116.8 76.7 118.1 76.7 118.1 76.7L119.3 77.5Z" fill="#2B2A29"/>
<path d="M79.8003 93.4L106.8 109V106L79.8003 90.4V93.4Z" fill="#DB3377"/>
<path d="M78.8003 94L105.8 109.6V106.6L78.8003 91V94Z" fill="#B21E34"/>
<path d="M105.8 106.6L106.8 106V109L105.8 109.6V106.6Z" fill="#B21E34"/>
<path d="M78.8003 91L79.8003 90.4L106.8 106L105.8 106.6L78.8003 91Z" fill="#F2B0A2"/>
<path d="M104.6 105.4L93.5002 89.8L82.7002 92.7L83.9002 93.4L93.1002 91L102.5 104.2L104.6 105.4Z" fill="#4F0008"/>
<path d="M186.6 41.8V53.9H189.9V41.8C189.9 37.2 188.3 33.6 185.4 31.9C183 30.5 180 30.7 176.9 32.4L78.2 89.4C72 93.1 67 102.7 67 110.9V214.1C67.1 214.5 67.8 214.9 68.6 214.9C69.5 214.9 70.3 214.5 70.3 214V110.9C70.3 103.9 74.7 95.4 79.9 92.4L178.6 35.4C180.5 34.3 182.4 34.1 183.8 34.9C185.6 35.8 186.6 38.4 186.6 41.8Z" fill="#EEFDFE"/>
<path d="M93.7002 90.4H93.0002V87.3C93.0002 86.6 93.5002 86.3 93.8002 86C94.3002 85.7 94.7002 85.4 94.6002 84.3C94.4002 82.2 93.3002 81.3 92.5002 81.3C91.9002 81.3 91.5002 81.6 91.0002 82C91.0002 82 90.5002 82.3 90.2002 82.4C90.2002 82.2 90.3002 82 90.4002 81.8C90.8002 81.1 91.9002 80.6 92.7002 80.6C93.8002 80.7 95.0002 81.7 95.3002 84.2C95.4002 85.7 94.7002 86.2 94.2002 86.5C93.8002 86.7 93.7002 86.9 93.7002 87.2V90.4Z" fill="#4F0008"/>
<path d="M124.9 72.4H124.2V69.3C124.2 68.6 124.7 68.3 125 68C125.5 67.7 125.9 67.4 125.8 66.3C125.6 64.2 124.5 63.3 123.7 63.3C123.1 63.3 122.7 63.6 122.2 64C122.2 64 121.7 64.3 121.4 64.4C121.4 64.2 121.5 64 121.6 63.8C122 63.1 123.1 62.6 123.9 62.6C125 62.7 126.2 63.7 126.5 66.2C126.6 67.7 125.9 68.2 125.4 68.5C125 68.7 124.9 68.9 124.9 69.2V72.4Z" fill="#4F0008"/>
<path d="M168.4 47.4H167.7V44.3C167.7 43.6 168.2 43.3 168.5 43C169 42.7 169.4 42.4 169.3 41.3C169.1 39.2 168 38.3 167.2 38.3C166.6 38.3 166.2 38.6 165.7 39C165.7 39 165.2 39.3 164.9 39.4C164.9 39.2 165 39 165.1 38.8C165.5 38.1 166.6 37.6 167.4 37.6C168.5 37.7 169.7 38.7 170 41.2C170.1 42.7 169.4 43.2 168.9 43.5C168.5 43.7 168.4 43.9 168.4 44.2V47.4Z" fill="#4F0008"/>
<path d="M145.9 61.1H145.3V57.1C145.3 56.4 145.8 56.1 146.1 55.9C146.6 55.6 147 55.3 146.9 54.2C146.7 52.1 145.6 51.3 144.8 51.2C144.2 51.2 143.8 51.5 143.3 51.9C143.3 51.9 142.8 52.2 142.5 52.3C142.5 52.1 142.6 51.9 142.7 51.7C143.1 51 144.2 50.5 145 50.5C146.1 50.6 147.3 51.5 147.5 54.1C147.6 55.6 146.9 56.1 146.4 56.4C146 56.6 145.9 56.7 145.9 57.1V61.1Z" fill="#4F0008"/>
<path d="M167 172.4C167 172.4 167.2 176 168.2 178.2C169 180 169.3 183.6 169.3 183.6C169.3 183.6 170.2 183.8 170.6 183.5C171 181.4 170.6 175.5 170.6 175.5L167 172.4Z" fill="#B21E34"/>
<path d="M180.8 190.1C184.8 190.4 186.2 190.1 186.8 188.7C187.4 187.3 186.1 185.5 183.9 183.1C182.771 181.865 182.152 181.29 181.658 180.83C180.75 179.986 180.259 179.53 177.8 176.1C174.212 171.096 173.923 170.104 173.06 167.147C173.009 166.972 172.956 166.79 172.9 166.6L172.42 166.741C172.439 166.804 172.457 166.867 172.475 166.929M180.8 190.1L172.475 166.929M180.8 190.1C174.9 189.7 173.4 186.1 172.1 182.7L180.8 190.1ZM172.475 166.929C171.886 166.599 171.326 166.532 170.81 166.634C170.237 166.748 169.678 167.079 169.179 167.579C168.171 168.586 167.5 170.185 167.5 171.6C167.5 173.008 167.676 174.018 167.959 174.829C168.243 175.637 168.642 176.273 169.127 176.927C169.301 177.163 169.487 177.401 169.681 177.649C170.572 178.79 171.637 180.153 172.565 182.517L172.567 182.521L172.567 182.521C173.22 184.23 173.892 185.891 175.092 187.185C176.27 188.456 177.995 189.409 180.834 189.601L180.837 189.601C182.84 189.752 184.12 189.744 184.963 189.55C185.374 189.456 185.657 189.322 185.861 189.16C186.063 189 186.217 188.791 186.34 188.503C186.548 188.019 186.463 187.398 185.965 186.522C185.471 185.651 184.63 184.637 183.531 183.438L183.531 183.437C182.441 182.246 181.829 181.675 181.333 181.213C180.405 180.348 179.88 179.859 177.394 176.391C175.492 173.739 174.495 172.185 173.85 170.856C173.276 169.672 172.985 168.675 172.58 167.289C172.546 167.172 172.511 167.052 172.475 166.929Z" fill="#D7E4E7" stroke="#D7E4E7"/>
<path d="M175.7 177.5C174.6 175.8 172.4 170.4 170.8 169.6C169.8 169.1 169.1 169.3 168.6 169.6C168.4 168.1 168.7 166.9 170.4 166.3C173.6 165.2 173.6 167.8 175.4 171.5C177.5 175.7 181.1 180.4 181.1 180.4C181.7 181.1 182.1 182.4 182 183.3C180.5 182.2 178.3 181.5 175.7 177.5Z" fill="#B21E34"/>
<path d="M181 184.7C178.9 185 177.3 184.9 175.5 182.5C173.9 180.4 171.1 176.9 170.1 174.2C169.6 172.8 168.9 171.2 168.7 169.8C169.1 169.6 169.9 169.3 170.9 169.8C172.4 170.6 174.7 176 175.8 177.7C178.4 181.7 180.5 182.3 182.2 183.5C182 184 181.7 184.6 181 184.7Z" fill="#B21E34"/>
<path d="M169.2 169.258V169.048C169.201 169.048 169.202 169.049 169.203 169.049C169.687 169.367 170.354 169.782 171.078 170.167C171.798 170.549 172.595 170.912 173.336 171.114C174.048 171.307 174.843 171.39 175.454 171.031C175.716 170.877 175.929 170.687 176.065 170.452C176.086 170.415 176.105 170.379 176.121 170.342C176.146 170.462 176.161 170.581 176.163 170.697C176.168 170.961 176.107 171.172 175.991 171.328C175.879 171.479 175.677 171.631 175.297 171.711L175.297 171.711L175.292 171.712C174.732 171.836 174.069 171.764 173.357 171.552C172.65 171.341 171.932 171.003 171.282 170.639C170.634 170.276 170.066 169.893 169.659 169.6C169.466 169.461 169.31 169.343 169.2 169.258Z" fill="#D7E4E7" stroke="#D7E4E7"/>
<path d="M158.1 178C158.1 178 158.3 181.6 159.3 183.8C160.1 185.6 160.4 189.2 160.4 189.2C160.4 189.2 161.3 189.4 161.7 189.1C162.1 187 161.7 181.1 161.7 181.1L158.1 178Z" fill="#B21E34"/>
<path d="M171.9 195.7C175.9 196 177.3 195.7 177.9 194.3C178.5 192.9 177.2 191.1 175 188.7C173.871 187.465 173.253 186.89 172.758 186.43C171.85 185.586 171.359 185.13 168.9 181.7C165.313 176.696 165.023 175.704 164.16 172.747C164.109 172.572 164.056 172.39 164 172.2L163.52 172.341C163.539 172.404 163.557 172.467 163.575 172.529M171.9 195.7L163.575 172.529M171.9 195.7C166 195.3 164.5 191.7 163.2 188.3L171.9 195.7ZM163.575 172.529C162.986 172.2 162.42 172.132 161.895 172.234C161.312 172.349 160.744 172.681 160.239 173.181C159.22 174.189 158.555 175.781 158.6 177.184L158.6 177.192V177.2C158.6 178.608 158.776 179.618 159.06 180.429C159.343 181.237 159.742 181.873 160.227 182.527C160.401 182.763 160.587 183.001 160.781 183.249C161.672 184.39 162.737 185.753 163.665 188.117L163.667 188.121L163.667 188.121C164.321 189.83 164.992 191.491 166.192 192.785C167.37 194.056 169.095 195.009 171.934 195.201L171.937 195.201C173.94 195.352 175.22 195.344 176.063 195.15C176.474 195.056 176.757 194.922 176.961 194.76C177.163 194.6 177.317 194.391 177.441 194.103C177.648 193.619 177.563 192.998 177.065 192.122C176.571 191.251 175.73 190.237 174.632 189.038L174.631 189.037C173.541 187.846 172.929 187.275 172.433 186.813C171.505 185.948 170.98 185.459 168.494 181.991C166.592 179.339 165.595 177.785 164.95 176.456C164.376 175.272 164.085 174.275 163.681 172.889C163.646 172.772 163.611 172.652 163.575 172.529Z" fill="#D7E4E7" stroke="#D7E4E7"/>
<path d="M166.8 183.1C165.7 181.4 163.5 176 161.9 175.2C160.9 174.7 160.2 174.9 159.7 175.2C159.5 173.7 159.8 172.5 161.5 171.9C164.7 170.8 164.7 173.4 166.5 177.1C168.6 181.3 172.2 186 172.2 186C172.8 186.7 173.2 188 173.1 188.9C171.5 187.8 169.4 187.1 166.8 183.1Z" fill="#B21E34"/>
<path d="M172.1 190.3C170 190.6 168.4 190.5 166.6 188.1C165 186 162.2 182.5 161.2 179.8C160.7 178.4 160 176.8 159.8 175.4C160.2 175.2 161 174.9 162 175.4C163.5 176.2 165.8 181.6 166.9 183.3C169.5 187.3 171.6 187.9 173.3 189.1C173.1 189.6 172.8 190.2 172.1 190.3Z" fill="#B21E34"/>
<path d="M160.2 174.858V174.648C160.201 174.648 160.202 174.649 160.203 174.649C160.687 174.967 161.354 175.382 162.078 175.767C162.798 176.149 163.595 176.512 164.336 176.714C165.048 176.907 165.843 176.99 166.454 176.631C166.716 176.477 166.929 176.287 167.065 176.052C167.086 176.015 167.105 175.979 167.121 175.942C167.146 176.062 167.161 176.181 167.163 176.297C167.168 176.561 167.107 176.772 166.991 176.928C166.879 177.079 166.677 177.231 166.297 177.311L166.297 177.311L166.292 177.312C165.732 177.436 165.069 177.364 164.357 177.152C163.65 176.941 162.932 176.603 162.282 176.239C161.634 175.876 161.066 175.493 160.659 175.2C160.466 175.061 160.31 174.943 160.2 174.858Z" fill="#D7E4E7" stroke="#D7E4E7"/>
<path d="M117.2 203.7C117.2 203.7 117.4 207.3 118.4 209.5C119.2 211.3 119.5 214.9 119.5 214.9C119.5 214.9 120.4 215.1 120.8 214.8C121.2 212.7 120.8 206.8 120.8 206.8L117.2 203.7Z" fill="#B21E34"/>
<path d="M131.1 221.4C135.1 221.7 136.5 221.4 137.1 220C137.7 218.6 136.4 216.8 134.2 214.4C133.071 213.165 132.453 212.59 131.958 212.13C131.05 211.286 130.56 210.83 128.1 207.4C124.513 202.396 124.223 201.403 123.36 198.447C123.309 198.272 123.256 198.09 123.2 197.9L122.721 198.041C122.739 198.104 122.758 198.167 122.776 198.229M131.1 221.4L122.776 198.229M131.1 221.4C125.2 221 123.7 217.4 122.4 214L131.1 221.4ZM122.776 198.229C122.186 197.9 121.62 197.832 121.095 197.934C120.513 198.049 119.944 198.381 119.439 198.881C118.42 199.889 117.755 201.481 117.8 202.884L117.8 202.892V202.9C117.8 204.308 117.976 205.318 118.26 206.129C118.543 206.937 118.942 207.573 119.427 208.227C119.601 208.463 119.787 208.701 119.981 208.949C120.873 210.09 121.937 211.453 122.866 213.817L122.867 213.821L122.867 213.821C123.521 215.53 124.192 217.191 125.392 218.485C126.57 219.756 128.295 220.709 131.134 220.901L131.138 220.901C133.14 221.052 134.421 221.044 135.263 220.85C135.675 220.756 135.957 220.622 136.162 220.46C136.364 220.3 136.517 220.091 136.641 219.803C136.848 219.319 136.763 218.698 136.265 217.822C135.771 216.951 134.931 215.937 133.832 214.738L133.831 214.737C132.742 213.546 132.13 212.975 131.633 212.513C130.705 211.648 130.18 211.159 127.694 207.691C125.793 205.039 124.796 203.485 124.15 202.156C123.576 200.972 123.285 199.975 122.881 198.589C122.847 198.472 122.812 198.352 122.776 198.229Z" fill="#D7E4E7" stroke="#D7E4E7"/>
<path d="M126 208.9C124.9 207.2 122.7 201.8 121.1 201C120.1 200.5 119.4 200.7 118.9 201C118.7 199.5 119 198.3 120.7 197.7C123.9 196.6 123.9 199.2 125.7 202.9C127.8 207.1 131.4 211.8 131.4 211.8C132 212.5 132.4 213.8 132.3 214.7C130.7 213.5 128.6 212.8 126 208.9Z" fill="#B21E34"/>
<path d="M131.3 216C129.2 216.3 127.6 216.2 125.8 213.8C124.2 211.7 121.4 208.2 120.4 205.5C119.9 204.1 119.2 202.5 119 201.1C119.4 200.9 120.2 200.6 121.2 201.1C122.7 201.9 125 207.3 126.1 209C128.7 213 130.8 213.6 132.5 214.8C132.3 215.4 132 215.9 131.3 216Z" fill="#B21E34"/>
<path d="M119.4 200.558V200.348C119.401 200.348 119.402 200.349 119.403 200.349C119.887 200.667 120.554 201.082 121.278 201.467C121.999 201.849 122.795 202.212 123.536 202.414C124.248 202.607 125.043 202.69 125.654 202.331C125.916 202.177 126.129 201.987 126.265 201.752C126.286 201.715 126.305 201.679 126.322 201.642C126.346 201.762 126.361 201.881 126.363 201.997C126.368 202.261 126.307 202.472 126.191 202.628C126.079 202.779 125.877 202.931 125.497 203.011L125.497 203.011L125.492 203.012C124.932 203.136 124.269 203.064 123.557 202.852C122.85 202.641 122.132 202.303 121.482 201.939C120.834 201.576 120.266 201.193 119.859 200.9C119.666 200.761 119.51 200.643 119.4 200.558Z" fill="#D7E4E7" stroke="#D7E4E7"/>
<path d="M108.3 209.3C108.3 209.3 108.5 212.9 109.5 215.1C110.3 216.9 110.6 220.5 110.6 220.5C110.6 220.5 111.5 220.7 111.9 220.4C112.3 218.3 111.9 212.4 111.9 212.4L108.3 209.3Z" fill="#B21E34"/>
<path d="M122.2 227C126.2 227.3 127.6 227 128.2 225.6C128.8 224.2 127.5 222.4 125.3 220C124.172 218.765 123.553 218.19 123.058 217.73C122.151 216.886 121.66 216.43 119.2 213C115.613 207.996 115.323 207.004 114.461 204.047C114.409 203.872 114.356 203.69 114.3 203.5L113.821 203.641C113.84 203.706 113.859 203.77 113.877 203.833M122.2 227L113.877 203.833M122.2 227C116.3 226.6 114.8 223 113.5 219.6L122.2 227ZM113.877 203.833C113.263 203.5 112.682 203.431 112.152 203.535C111.566 203.649 111.002 203.981 110.504 204.479C109.499 205.484 108.855 207.076 108.9 208.484L108.9 208.492V208.5C108.9 209.908 109.076 210.918 109.36 211.729C109.643 212.537 110.042 213.173 110.527 213.827C110.702 214.063 110.888 214.301 111.082 214.549C111.973 215.69 113.037 217.053 113.966 219.417L113.968 219.421L113.967 219.421C114.621 221.13 115.292 222.791 116.492 224.085C117.67 225.356 119.396 226.309 122.234 226.501L122.238 226.501C124.24 226.652 125.521 226.644 126.364 226.45C126.775 226.356 127.057 226.222 127.262 226.06C127.464 225.9 127.618 225.691 127.741 225.403C127.948 224.919 127.863 224.298 127.366 223.422C126.871 222.551 126.031 221.537 124.932 220.338L124.931 220.337C123.842 219.146 123.23 218.575 122.733 218.113C121.805 217.248 121.28 216.759 118.794 213.291C116.893 210.639 115.896 209.085 115.251 207.756C114.676 206.572 114.385 205.575 113.981 204.189C113.947 204.073 113.913 203.954 113.877 203.833Z" fill="#D7E4E7" stroke="#D7E4E7"/>
<path d="M117.101 214.5C116.001 212.8 113.801 207.4 112.201 206.6C111.201 206.1 110.501 206.3 110.001 206.6C109.801 205.1 110.101 203.9 111.801 203.3C115.001 202.2 115.001 204.8 116.801 208.5C118.901 212.7 122.501 217.4 122.501 217.4C123.101 218.1 123.501 219.4 123.401 220.3C121.801 219.1 119.701 218.4 117.101 214.5Z" fill="#B21E34"/>
<path d="M122.3 221.6C120.2 221.9 118.6 221.8 116.8 219.4C115.2 217.3 112.4 213.8 111.4 211.1C110.9 209.7 110.2 208.1 110 206.7C110.4 206.5 111.2 206.2 112.2 206.7C113.7 207.5 116 212.9 117.1 214.6C119.7 218.6 121.8 219.2 123.5 220.4C123.4 221 123 221.5 122.3 221.6Z" fill="#B21E34"/>
<path d="M110.5 206.158V205.948C110.501 205.948 110.502 205.949 110.503 205.949C110.987 206.267 111.654 206.682 112.379 207.067C113.099 207.449 113.896 207.812 114.636 208.014C115.348 208.207 116.143 208.29 116.754 207.931C117.017 207.777 117.229 207.587 117.366 207.352C117.386 207.315 117.405 207.279 117.422 207.242C117.446 207.362 117.461 207.481 117.463 207.597C117.468 207.861 117.407 208.072 117.291 208.228C117.179 208.379 116.977 208.531 116.597 208.611L116.597 208.611L116.592 208.612C116.032 208.736 115.369 208.664 114.657 208.452C113.95 208.241 113.232 207.903 112.583 207.539C111.935 207.176 111.366 206.793 110.96 206.5C110.766 206.361 110.61 206.243 110.5 206.158Z" fill="#D7E4E7" stroke="#D7E4E7"/>
<path d="M266.7 328.4C304.587 328.4 335.3 321.863 335.3 313.8C335.3 305.737 304.587 299.2 266.7 299.2C228.813 299.2 198.1 305.737 198.1 313.8C198.1 321.863 228.813 328.4 266.7 328.4Z" fill="#2B6F81"/>
<path d="M272.7 260.2C274.4 255.1 274.6 250.1 274.2 244.8C274 242.3 274.5 236.4 271.2 235.6C269.2 235.1 268.4 237.8 268.1 241.5C267.7 243.9 267.6 246.4 267.4 248.6C267.2 251.3 267.3 254 268.2 256.5C266.1 255.1 263.8 254.1 261.6 253C257.8 251.1 254 249.1 250.2 247.1C249.7 246.8 248.8 246.9 248.7 247.6C248.5 247.5 248.2 247.5 248 247.6C245.6 248.9 244.1 251.4 242.5 253.5C242.4 253.6 242.3 253.7 242.2 253.8C240.1 256.2 238.2 258.7 236.5 261.3C235.9 262.1 235.3 262.9 234.7 263.7C234.7 263.7 234.7 263.7 234.7 263.8C233.8 264.1 233 264.7 232.4 265.2C231 266.4 229.9 267.8 229 269.4C228.9 269.6 229.2 269.9 229.3 269.7C230.5 268.4 231.8 267.4 233.2 266.5C233.4 266.4 233.6 266.2 233.9 266.1C233.9 266.2 233.8 266.4 233.8 266.5C233.5 267.8 233.3 269.1 233.2 270.3C233.1 271.1 234.3 271.1 234.4 270.4C234.6 269.2 234.8 268.1 235.2 267C235.4 266.3 235.8 265.6 236 264.9C236.2 264.8 236.4 264.6 236.6 264.4C236.7 264.3 236.7 264.2 236.7 264.1C240.4 259.7 244.2 255.6 248.3 251.6C248.4 251.7 248.5 251.8 248.6 251.8C249.7 252.2 250.7 252.7 251.8 253.1C254.5 254.6 257.5 256.1 260.5 257.3C263.5 258.9 266.7 260.4 270 261.6C270.1 261.6 270.2 261.6 270.3 261.6C271.2 262.1 272.6 261.5 272.7 260.2Z" fill="#4F0008"/>
<path d="M260.2 232.8C260.2 232.8 260.2 232.7 260.2 232.8C259.9 227.4 258.2 222.7 255.9 218C254.8 215.7 253.1 210.1 249.7 210.6C247.7 210.9 247.9 213.7 249 217.2C249.5 219.6 250.3 222 251 224.1C251.8 226.7 252.9 229.2 254.7 231.2C252.3 230.7 249.8 230.6 247.3 230.4C243 230 238.8 229.6 234.5 229.2C233.9 229.1 233.2 229.5 233.3 230.3C233.1 230.3 232.8 230.4 232.6 230.6C230.8 232.7 230.4 235.5 229.7 238.1C229.7 238.2 229.6 238.4 229.6 238.5C228.6 241.5 227.7 244.5 227.1 247.6C226.8 248.6 226.6 249.5 226.3 250.5C226.3 250.5 226.3 250.5 226.3 250.6C225.6 251.2 225 252.1 224.7 252.7C223.9 254.3 223.4 256 223.1 257.8C223.1 258 223.4 258.2 223.5 258C224.1 256.4 224.9 255 226 253.6C226.2 253.4 226.3 253.2 226.5 252.9C226.5 253 226.5 253.2 226.6 253.3C226.8 254.6 227.1 255.8 227.5 257.1C227.7 257.9 228.9 257.5 228.7 256.7C228.4 255.6 228.2 254.4 228.1 253.2C228 252.5 228.1 251.7 228 250.9C228.1 250.7 228.3 250.5 228.4 250.2C228.4 250.1 228.4 250 228.4 249.9C230.2 244.5 232.2 239.2 234.5 234C234.6 234 234.8 234.1 234.9 234.1C236 234.1 237.2 234.1 238.3 234.1C241.4 234.5 244.7 234.7 247.9 234.7C251.3 235.1 254.8 235.2 258.3 235.2C258.4 235.2 258.5 235.2 258.6 235.1C259.5 235.1 260.6 234 260.2 232.8Z" fill="#4F0008"/>
<path d="M266.3 266.8C266.1 266.9 241 277.3 236.4 278.7C235.9 278.9 235.8 279.5 236 279.9C236.4 280.8 246.5 295.3 248.5 297C248.6 297.1 250.4 297.1 250.9 297.4C251.9 298 252.6 298.9 253.3 299.7C254.9 301.5 256.5 303.4 258.2 305.2C258.6 305.6 262.1 308.6 262 309.1C262 309.4 261.9 309.6 261.9 309.9C261.9 310.9 261.7 312 261.5 313C261.1 314.9 260.6 316.9 260.9 318.9C261 319.7 262 319.5 262.2 318.8C262.3 317 262.7 315.3 263.1 313.6C263.3 314.5 263.5 315.4 263.8 316.2C263.8 316.3 263.9 316.5 263.9 316.6C263.9 316.7 264 316.9 264.1 317C264.2 317.3 264.4 317.7 264.6 318C265.1 318.9 266.7 318.3 266.1 317.3C265.9 317 265.8 316.7 265.7 316.4C265.7 316.4 265.7 316.4 265.7 316.3C265.3 315.1 265.1 313.9 264.8 312.7C264.7 311.7 264.6 310.7 264.4 309.8C264.3 309.3 265.1 309 264.7 308.1C264.3 307.2 262.6 306.1 261.9 305.4C258.8 302.2 256.1 298.6 253.4 295V294.9C253.6 294.7 253.6 294.4 253.6 294.1L253.7 294C254 293.8 254 293.4 253.8 293.1C251.1 289.5 248.2 286 244.9 282.9C244.4 282.2 244 281.7 244 281.7C248.8 279.9 267.3 272.8 271.7 270.8C272.2 270.6 272.5 270 272.4 269.5C271.5 265.7 269.7 264.8 266.3 266.8Z" fill="#4F0008"/>
<path d="M316.6 243.4C319.9 254.9 320.1 268.6 312.3 277.7C312.2 258.3 305 239.1 292.4 224.5C279.8 210 261.9 200.4 243.1 198C245.4 195.2 245.1 190.7 242.6 188.2C259 187.8 275.5 193.1 288.7 203C302 212.9 311.9 227.4 316.6 243.4Z" fill="#4F0008"/>
<path d="M313.6 276.6C311.5 279.2 307.9 280.5 304.5 280.4C298.5 280.3 293.2 276.4 289.7 271.5C286.2 266.7 284.1 261 281.8 255.5C272 232.2 256.8 211.3 237.7 194.8C256.7 194.9 275.5 202.1 289.7 214.6C303.9 227.1 313.3 245 315.7 263.8C316.4 268.3 316.4 273.2 313.6 276.6Z" fill="#4F0008"/>
<path d="M290.9 281.9C282.9 285.1 272.6 283.5 264.9 280C263.1 279.2 261.1 277.7 261.4 275.7C255.7 274.1 252 267.4 253.8 261.8C249.3 259.6 247 253.7 248.9 249.1C245.9 246.9 245.1 242.3 247 239.2C243.7 237.1 242.8 232.8 242.3 229C241.8 225.2 241.1 220.9 238 218.5C245 215.1 248.2 208.2 251.1 201C259.7 204.9 268.1 209.5 275.6 215.2C279.9 218.5 284 222.2 288 226C292 229.8 295.9 233.8 298.5 238.6C301.8 244.6 303.001 251.7 303.201 258.6C303.4 263.9 302.6 269.3 300.1 273.9C297.9 277.8 294.6 280.4 290.9 281.9Z" fill="#F2B0A2"/>
<path d="M247.2 199.3C244.4 206.5 245 215.1 238 218.5C239.4 219.6 240.4 221.1 241 222.8C242.3 222.6 243.7 222.3 244.9 221.8C249.8 219.7 253.2 214.8 254.5 209.6C255 207.4 255.3 205.2 255.3 203C253.9 202.3 248.6 199.9 247.2 199.3Z" fill="#EE7675"/>
<path d="M232.8 182.4C228 181.7 222.8 181.6 218.5 183.9C214.2 186.2 211.4 190.6 210.3 195.3C209.2 200 209.8 204.9 211.1 209.6C212.4 214.2 214.4 218.7 217.7 222.1C221 225.6 225.7 227.9 230.4 227.7C235.8 227.5 240.6 224.1 243.7 219.7C246.8 215.3 248.3 210 249.1 204.7C250 199.6 250.2 193.9 247.2 189.6C244.1 185 238.3 183.2 232.8 182.4Z" fill="#F2B0A2"/>
<path d="M246.4 240.4C259.7 238.7 273.6 230.5 279.6 218.4C278.9 217.9 278.3 217.3 277.6 216.8C274.6 221.9 271.4 226.5 266.3 230.6C260.8 235.1 253.9 237.7 246.9 239.1C246.9 239.1 246.9 239.1 247 239.1C246.8 239.6 246.6 240 246.4 240.4Z" fill="#4F0008"/>
<path d="M302.701 252.7C302.601 251.7 302.401 250.7 302.201 249.7C296.701 256.5 290.901 262.5 283.201 267.3C277.001 271.1 269.001 274.6 261.101 275.7C261.201 275.7 261.301 275.8 261.401 275.8C261.301 276.3 261.401 276.8 261.601 277.2C268.201 276.4 274.901 273.6 280.601 270.8C288.701 266.7 297.001 260.4 302.701 252.7Z" fill="#4F0008"/>
<path d="M275.4 241C280.5 237.7 285.9 232.9 289 227.1C288.6 226.7 287.5 225.7 287.3 225.5C284.2 231.6 279.3 236.3 272.8 240.5C265.7 245.1 257.7 249 249.2 248.7C249 249.1 248.9 249.6 248.8 250.1C258.5 251 267.3 246.3 275.4 241Z" fill="#BD5E31"/>
<path d="M275.5 255.4C283.3 250.9 291.701 243.9 296.701 235.8C296.201 235.1 295.701 234.4 295.201 233.7C289.5 240.7 284.2 247.3 276.3 252.5C270.2 256.5 261.9 260.5 253.8 261.8C253.6 262.3 253.5 262.9 253.5 263.4C261.2 262.9 269.6 258.8 275.5 255.4Z" fill="#4F0008"/>
<path d="M244.4 212.4C245.2 214.1 244.3 216.2 242.4 217C240.5 217.8 238.4 217.1 237.7 215.3C236.9 213.6 237.8 211.5 239.7 210.7C241.5 209.9 243.6 210.6 244.4 212.4Z" fill="#B1354E"/>
<path d="M221.7 212.9C222.5 214.6 221.6 216.7 219.7 217.5C217.8 218.3 215.7 217.6 215 215.8C214.2 214.1 215.1 212 217 211.2C218.9 210.4 221 211.1 221.7 212.9Z" fill="#B1354E"/>
<path d="M215.2 194C215.7 193.9 216 193.8 216.4 193.4C216.7 193.2 217 193 217.2 192.9C217.7 192.7 218.2 192.5 218.5 192.1C218.9 191.6 218.9 190.9 218.6 190.4C218.3 190 217.8 189.7 217.3 189.8C216.4 190 215.7 190.4 215.1 191.2C214.5 191.9 214 192.7 214.4 193.6C214.5 193.8 214.8 194.1 215.2 194Z" fill="#B21E34"/>
<path d="M242.4 192.6C241.9 192.6 241.6 192.5 241.1 192.2C240.8 192 240.5 191.9 240.2 191.8C239.7 191.7 239.2 191.6 238.7 191.3C238.2 190.9 238 190.2 238.3 189.6C238.5 189.2 239 188.8 239.5 188.8C240.5 188.8 241.2 189.1 241.9 189.7C242.6 190.3 243.2 191 243 192C242.9 192.4 242.7 192.6 242.4 192.6Z" fill="#B21E34"/>
<path d="M206.79 197.803L206.795 197.777L206.798 197.75C206.878 196.946 207.176 196.2 207.579 195.506C212.73 195.636 217.855 196.691 222.429 198.925C222.561 200.539 222.258 202.123 221.377 203.533C219.405 206.631 215.156 208.049 211.677 206.732C208.21 205.421 206.04 201.364 206.79 197.803Z" fill="#D7E4E7" stroke="#D7E4E7"/>
<path d="M208.5 195.1C207.9 197 208.1 199.1 209.3 200.8C211 203.4 214.8 204.4 217.6 203.1C219.6 202.2 221 200.1 221.3 197.9C217.2 196.1 212.8 195.2 208.5 195.1Z" fill="#B21E34"/>
<path d="M215.9 201.2C216 202.2 215.3 203.1 214.3 203.2C213.3 203.3 212.4 202.6 212.3 201.6C212.2 200.6 212.9 199.7 213.9 199.6C214.9 199.5 215.8 200.2 215.9 201.2Z" fill="white"/>
<path d="M249.026 195.858L249.032 195.875L249.039 195.892C250.443 199.262 249.032 203.605 245.932 205.578C242.843 207.544 238.317 206.888 235.876 204.17C234.811 202.926 234.162 201.427 233.934 199.83C237.944 196.929 242.774 194.933 247.811 193.851C248.327 194.476 248.787 195.142 249.026 195.858Z" fill="#D7E4E7" stroke="#D7E4E7"/>
<path d="M246.9 193.6C247.8 195.4 248 197.5 247.2 199.3C246 202.2 242.5 203.8 239.5 203.1C237.3 202.5 235.6 200.8 234.9 198.6C238.5 196.2 242.6 194.5 246.9 193.6Z" fill="#B21E34"/>
<path d="M250.7 192.6C244.2 193.2 238.3 195.6 232.8 199.1C232.1 199.5 232.8 200.6 233.4 200.2C238.7 196.7 244.6 194.5 250.8 192.9C250.9 192.9 250.9 192.6 250.7 192.6Z" fill="#B21E34"/>
<path d="M249.3 189.5C249.9 190.2 250.5 191.4 250 192.4C249.8 192.7 249.4 193 249 192.9L248.9 192.8C249.1 192.1 249.1 191.9 249.3 191.3C249.4 190.7 249.3 190.1 249.3 189.5C249.2 189.5 249.3 189.5 249.3 189.5Z" fill="#B21E34"/>
<path d="M247.7 189.9C248.3 190.6 248.9 191.8 248.4 192.8C248.2 193.1 247.8 193.4 247.4 193.3L247.3 193.2C247.5 192.5 247.5 192.3 247.7 191.7C247.9 191.1 247.8 190.5 247.7 189.9C247.6 189.9 247.7 189.9 247.7 189.9Z" fill="#B21E34"/>
<path d="M246.1 190.5C246.7 191.2 247.3 192.4 246.8 193.4C246.6 193.7 246.2 194 245.8 193.9L245.7 193.8C245.9 193.1 245.9 192.9 246.1 192.3C246.2 191.7 246.1 191.1 246.1 190.5C246 190.5 246.1 190.5 246.1 190.5Z" fill="#B21E34"/>
<path d="M244.4 190.9C245 191.6 245.6 192.8 245.1 193.8C244.9 194.1 244.5 194.4 244.1 194.3L244 194.2C244.2 193.5 244.2 193.3 244.4 192.7C244.5 192.2 244.4 191.5 244.4 190.9C244.3 191 244.4 190.9 244.4 190.9Z" fill="#B21E34"/>
<path d="M240.8 200.9C240.9 201.9 241.8 202.6 242.8 202.5C243.8 202.4 244.5 201.5 244.4 200.5C244.3 199.5 243.4 198.8 242.4 198.9C241.4 199.1 240.7 200 240.8 200.9Z" fill="white"/>
<path d="M234.8 187.3C249.8 180.4 264.8 176.3 281.4 176.2C289.1 176.2 296.8 177.3 304.3 179.2C311.9 181.1 318.7 184.7 326 187.5C326.5 187.7 326.8 186.9 326.4 186.6C314.1 177.5 296.4 174.6 281.4 174.4C265.3 174.1 248.1 178.3 234.8 187.3C234.7 187.3 234.7 187.4 234.8 187.3Z" fill="#4F0008"/>
<path d="M226.4 185.3C232.5 173.4 243.1 167 255.8 163.7C270.9 159.7 285.3 162.2 300 166.1C300.3 166.2 300.6 165.7 300.2 165.5C285.9 158.9 268.3 159.3 253.4 163.2C242.1 166.2 229.7 173.4 226.1 185.2C226 185.3 226.3 185.4 226.4 185.3Z" fill="#4F0008"/>
<path d="M236.5 194.9C236.2 193.4 233.9 193.4 233.5 194.9C233.4 195.3 233.4 195.7 233.7 196.1C234.3 197 235.8 197.2 236.3 196.1C236.5 195.6 236.6 195.3 236.5 194.9Z" fill="#B1354E"/>
<path d="M222.6 188C224.2 189.1 225.9 189.2 227.8 188.7C228.7 188.4 229 187.5 228.7 186.7C228.7 186.1 228.4 185.5 227.8 185.1C226.6 184.3 224.6 183.9 223.3 184.8C222.6 185.3 222.2 186.1 222.4 187C222.3 187.3 222.3 187.8 222.6 188Z" fill="#B1354E"/>
<path d="M225 192.8C223.9 192.4 222.6 192.5 221.6 193.1C221 193.5 220.7 194.1 220.9 194.8C220.7 195.4 221 196 221.5 196.4C222.8 197.2 224.6 196.4 225.7 195.5C226.1 195.1 226.2 194.5 226.1 194C226 193.3 225.6 193 225 192.8Z" fill="#B1354E"/>
<path d="M218.6 186.7C218.2 186.6 217.9 186.5 217.6 186.7L217.5 186.8C216.8 186.5 216.3 187.5 216.9 187.9C217.6 188.3 218.3 188.2 218.9 187.7C219.2 187.5 219 186.8 218.6 186.7Z" fill="#B1354E"/>
<path d="M226.9 201.2C226.6 201 226.2 200.7 225.8 200.8C225.5 200.8 225.2 201 224.9 201.1C224.1 201.4 224 202.8 225.1 203C225.8 203.1 226.3 203.1 226.7 202.8C227 202.7 227.2 202.5 227.2 202.2C227.2 201.9 227.2 201.5 226.9 201.2Z" fill="#B1354E"/>
<path d="M231.2 202.7C231.1 202.3 230.7 202.2 230.3 202.1C230 202 229.5 202.2 229.4 202.6C229.3 202.9 229.3 203.2 229.5 203.4C229.7 203.6 230 203.8 230.3 203.7C230.4 203.7 230.4 203.7 230.5 203.7C231 203.6 231.3 203.2 231.2 202.7Z" fill="#B1354E"/>
<path d="M224.7 205.1C224.6 205.1 224.6 205.1 224.5 205C224 204.7 223.5 205.3 223.9 205.7C224.1 205.9 224.3 206 224.7 206C225.2 205.9 225.2 205.2 224.7 205.1Z" fill="#B1354E"/>
<path d="M231.8 204.2C230.9 204.1 230.1 205.4 231 206C231.2 206.2 231.5 206.3 231.7 206.4C232.3 206.6 232.9 206.1 232.9 205.5C233.1 204.8 232.5 204 231.8 204.2Z" fill="#B1354E"/>
<path d="M249.7 231.5C248.8 231.1 247.9 231.1 247.1 231.4C246.1 231.7 245.6 232.3 245.4 233.3C245.1 234.8 246.3 236 247.7 236.1C248.4 236.2 249.2 235.8 249.6 235.2C249.7 235.1 249.9 235 250 234.9C250.7 234.3 250.8 233.5 250.7 232.6C250.7 232.1 250.1 231.6 249.7 231.5Z" fill="#B1354E"/>
<path d="M245.9 222.4C245.3 222.5 244.8 222.6 244.2 222.9C243.9 223.1 243.6 223.4 243.5 223.8C243.1 224.3 243.2 225.2 243.9 225.5C244.6 225.7 245.4 225.9 246.1 225.5C246.8 225.2 247.2 224.5 247.2 223.7C247.3 222.9 246.7 222.3 245.9 222.4Z" fill="#B1354E"/>
<path d="M252.3 221C251.5 220.4 250.6 220.3 249.8 221.1C249.5 221.4 249.4 222 249.5 222.4C249.5 222.6 249.5 222.9 249.7 223.1C249.7 223.1 249.7 223.2 249.8 223.2C250.1 223.6 250.6 223.8 251.1 223.7C251.7 223.6 252 223.3 252.4 222.9C252.8 222.5 252.8 221.4 252.3 221Z" fill="#B1354E"/>
<path d="M253.8 230.1C253.8 230.2 253.7 230.2 253.6 230.2C252.9 230.4 253.2 231.6 253.9 231.6C254.3 231.6 254.6 231.5 254.9 231.3C256 230.6 254.7 229 253.8 230.1Z" fill="#B1354E"/>
<path d="M250.8 225.7C250.1 225.4 249.5 225.3 248.8 225.5C247.8 225.7 247.6 227 248.4 227.5C248.8 227.8 249.1 227.8 249.5 227.6C250.1 227.7 250.7 227.5 251.2 227C251.6 226.7 251.4 226 250.8 225.7Z" fill="#B1354E"/>
<path d="M252.4 217C251.8 217 251.6 217.3 251.5 217.7C251.1 218.2 251.4 219 252.2 218.9C252.5 218.9 252.7 218.8 253 218.8C253.5 218.7 253.8 218.1 253.6 217.7C253.3 217.1 252.9 217 252.4 217Z" fill="#B1354E"/>
<path d="M252.8 254C252.1 253.3 250.5 253.1 250.2 254.3C250.2 254.5 250.1 254.6 250.2 254.7C249.9 255.2 250.1 255.8 250.7 256.1C251.1 256.3 251.7 256.4 252.1 256.1C252.5 255.9 252.7 255.5 253 255.2C253.2 255 253.1 254.4 252.8 254Z" fill="#BD5E31"/>
<path d="M268.7 235.7C268.7 235.7 268.7 235.6 268.7 235.7C268.4 230.3 266.7 225.6 264.4 220.9C263.3 218.6 261.6 213 258.2 213.5C256.2 213.8 256.4 216.6 257.5 220.1C258 222.5 258.8 224.9 259.5 227C260.3 229.6 261.4 232.1 263.2 234.1C260.8 233.6 258.3 233.5 255.8 233.3C251.5 232.9 247.3 232.5 243 232.1C242.4 232 241.7 232.4 241.8 233.2C241.6 233.2 241.3 233.3 241.1 233.5C239.3 235.6 238.9 238.4 238.2 241C238.2 241.1 238.1 241.3 238.1 241.4C237.1 244.4 236.2 247.4 235.6 250.5C235.3 251.5 235.1 252.4 234.8 253.4C234.8 253.4 234.8 253.4 234.8 253.5C234.1 254.1 233.5 255 233.2 255.6C232.4 257.2 231.9 258.9 231.6 260.7C231.6 260.9 231.9 261.1 232 260.9C232.6 259.3 233.4 257.9 234.5 256.5C234.7 256.3 234.8 256.1 235 255.8C235 255.9 235 256.1 235.1 256.2C235.3 257.5 235.6 258.7 236 260C236.2 260.8 237.4 260.4 237.2 259.6C236.9 258.5 236.7 257.3 236.6 256.1C236.5 255.4 236.6 254.6 236.5 253.8C236.6 253.6 236.8 253.4 236.9 253.1C236.9 253 236.9 252.9 236.9 252.8C238.7 247.4 240.7 242.1 243 236.9C243.1 236.9 243.3 237 243.4 237C244.5 237 245.7 237 246.8 237C249.9 237.4 253.2 237.6 256.4 237.6C259.8 238 263.3 238.1 266.8 238.1C266.9 238.1 267 238.1 267.1 238C268 238 269 236.9 268.7 235.7Z" fill="#4F0008"/>
<path d="M278.4 263C280.1 257.9 280.3 252.9 279.9 247.6C279.7 245.1 280.2 239.2 276.9 238.4C274.9 237.9 274.1 240.6 273.8 244.3C273.4 246.7 273.3 249.2 273.1 251.4C272.9 254.1 273 256.8 273.9 259.3C271.8 257.9 269.5 256.9 267.3 255.8C263.5 253.9 259.7 251.9 255.9 249.9C255.4 249.6 254.5 249.7 254.4 250.4C254.2 250.3 253.9 250.3 253.7 250.4C251.3 251.7 249.8 254.2 248.2 256.3C248.1 256.4 248 256.5 247.9 256.6C245.8 259 243.9 261.5 242.2 264.1C241.6 264.9 241 265.7 240.4 266.5C240.4 266.5 240.4 266.5 240.4 266.6C239.5 266.9 238.7 267.5 238.1 268C236.7 269.2 235.6 270.6 234.7 272.2C234.6 272.4 234.9 272.7 235 272.5C236.2 271.2 237.5 270.2 238.9 269.3C239.1 269.2 239.3 269 239.6 268.9C239.6 269 239.5 269.2 239.5 269.3C239.2 270.6 239 271.9 238.9 273.1C238.8 273.9 240 273.9 240.1 273.2C240.3 272 240.5 270.9 240.9 269.8C241.1 269.1 241.5 268.4 241.7 267.7C241.9 267.6 242.1 267.4 242.3 267.2C242.4 267.1 242.4 267 242.4 266.9C246.1 262.5 249.9 258.4 254 254.4C254.1 254.5 254.2 254.6 254.3 254.6C255.4 255 256.4 255.5 257.5 255.9C260.2 257.4 263.2 258.9 266.2 260.1C269.2 261.7 272.4 263.2 275.7 264.4C275.8 264.4 275.9 264.4 276 264.4C276.9 264.9 278.3 264.3 278.4 263Z" fill="#4F0008"/>
<path d="M301.5 311.4C301.6 311.1 301.5 310.8 301.2 310.5C296.7 305.8 292.6 300.9 288.7 295.7C291.5 290.8 294.4 285.9 297.3 281C297.8 280.8 298.3 280.2 298.2 279.7C297.4 272.2 296.6 264.8 295.8 257.3C295.6 255 293.5 251 290.6 252C286.4 253.5 289.4 266.1 290.1 269.2C290.3 270 293 278.3 292.9 278.4C289.3 283.3 285.5 288.2 282.7 293.5C282.7 293.5 282.7 293.6 282.6 293.6C282.5 293.8 282.4 293.9 282.4 294.1L282.3 294.2C282.3 294.3 282.3 294.4 282.3 294.4C282.3 294.9 282.7 295.4 283.3 295.6C283.9 296.3 284.6 296.9 285.2 297.6C285.3 298 285.6 298.2 285.9 298.3C289.8 303 294.3 307.2 298.9 311.2C298 311.4 297 311.7 296.1 311.9C294.6 312.3 293.1 312.7 291.6 313C290.9 313.2 291.1 314.5 291.9 314.3C293.4 314 297.2 313.3 297.5 313.2C296.7 314.3 296.1 315.6 295.6 316.9C295.5 317.3 296.1 317.7 296.4 317.3C297.1 316.3 297.9 315.4 298.9 314.6C299.4 314.2 299.8 313.8 300.3 313.4C300.9 313 301.4 312.8 301.6 312C301.7 311.9 301.6 311.6 301.5 311.4Z" fill="#4F0008"/>
<path d="M275.4 241C280.5 237.7 285.9 232.9 289 227.1C288.6 226.7 287.5 225.7 287.3 225.5C284.2 231.6 279.3 236.3 272.8 240.5C265.7 245.1 257.7 249 249.2 248.7C249 249.1 248.9 249.6 248.8 250.1C258.5 251 267.3 246.3 275.4 241Z" fill="#4F0008"/>
<path d="M290.3 277.6C286.1 280.4 281.5 281.7 276.7 281.8C275.2 281.6 273.7 281.5 272.2 281.6C271.8 281.6 271.4 281.5 271 281.4C270.8 281.4 270.6 281.7 270.8 281.8C271 281.9 271.3 282 271.5 282.1C271.5 282.2 271.5 282.2 271.5 282.3C277.9 284 285.1 284.3 291 281.9C291.2 281.8 291.4 281.7 291.6 281.6C292.5 280.7 292.9 279.5 292 277.9C291.6 277.4 290.8 277.3 290.3 277.6Z" fill="#4F0008"/>
<path d="M204.6 195.1C211 195.5 217.1 196.6 223 199C223.7 199.3 224.1 198.1 223.3 197.8C217.3 195.4 211 194.2 204.5 194.8C204.4 194.9 204.4 195.1 204.6 195.1Z" fill="#B21E34"/>
<path d="M204.6 191.7C204.6 192.3 204.6 192.9 204.8 193.4C205.1 194 205.2 194.1 205.5 194.8V194.9C205.1 195 204.7 194.9 204.4 194.6C203.8 193.8 204.1 192.5 204.6 191.7C204.5 191.7 204.6 191.7 204.6 191.7Z" fill="#B21E34"/>
<path d="M206.2 191.8C206.2 192.4 206.2 193 206.4 193.5C206.7 194.1 206.8 194.2 207.1 194.9V195C206.7 195.1 206.3 195 206 194.7C205.3 193.9 205.7 192.6 206.2 191.8C206.1 191.8 206.2 191.8 206.2 191.8Z" fill="#B21E34"/>
<path d="M208 192.1C208 192.7 208 193.3 208.2 193.8C208.5 194.4 208.6 194.5 208.9 195.2V195.3C208.5 195.4 208.1 195.3 207.8 195C207.1 194.2 207.5 192.9 208 192.1C207.9 192.1 208 192.1 208 192.1Z" fill="#B21E34"/>
<path d="M209.7 192.2C209.7 192.8 209.7 193.4 209.9 193.9C210.2 194.5 210.3 194.6 210.6 195.3V195.4C210.2 195.5 209.8 195.4 209.5 195.1C208.8 194.3 209.2 193 209.7 192.2C209.6 192.2 209.7 192.2 209.7 192.2Z" fill="#B21E34"/>
<path d="M233.1 218C232.9 218.9 232.1 219.5 231.2 219.4C230.7 219.3 230.3 218.9 230 218.5C229.8 218.1 229.8 217.7 229.5 217.4C229.4 217.3 229.2 217.2 229.1 217.2C228.7 217.1 228.2 217.3 228.1 217.8C227.9 218.7 227.1 219.3 226.2 219.2C225.7 219.1 225.3 218.7 225 218.3C224.8 217.9 224.8 217.5 224.5 217.2C224.3 217 223.9 217 223.7 217.2C223.3 217.8 223.6 218.6 224 219.1C224 219.1 224 219.1 224.1 219.2C224.5 220 225.4 220.7 226.3 220.9C227.5 221.1 228.5 220.4 229 219.4C229.4 220.2 230.3 220.9 231.2 221.1C232.9 221.4 234.2 219.8 234.3 218.2V218.1C234.3 218 234.3 218 234.3 217.9C234.4 217.1 233.2 217.3 233.1 218Z" fill="#B21E34"/>
<path d="M250.8 191.4C260.2 193 268.7 196.3 277.1 200.9C285.7 205.6 291.4 212.5 298.7 218.7C299 218.9 299.4 218.6 299.2 218.3C294.8 210.3 285.5 204.1 277.9 199.6C269.7 194.8 260.2 192.2 250.9 191C250.6 190.9 250.6 191.3 250.8 191.4Z" fill="#F2B0A2"/>
<path d="M300.8 221.7C303.2 224.8 305.2 228 307.2 231.4C309 234.4 310.1 237.7 311.9 240.7C312.1 241 312.6 240.8 312.5 240.4C311.2 233.2 306.1 226.4 301.3 221.2C301 220.7 300.5 221.3 300.8 221.7Z" fill="#F2B0A2"/>
</svg>
